<?xml version="1.0" encoding="utf-8"?>
<!-- Generator: Adobe Illustrator 24.3.0, SVG Export Plug-In . SVG Version: 6.00 Build 0)  -->
<svg version="1.1" id="Layer_1" xmlns="http://www.w3.org/2000/svg" xmlns:xlink="http://www.w3.org/1999/xlink" x="0px" y="0px"
	 viewBox="0 0 60 55" style="enable-background:new 0 0 60 55;" xml:space="preserve">
<style type="text/css">
	.st0{fill:#3B69DD;}
	.st1{fill:#FFFFFF;}
</style>
<g>
	<path class="st0" d="M43.1,14.7H16.9c-0.7,0-1.2,0.6-1.2,1.2v5.3c0,0.7,0.5,1.2,1.2,1.2h26.2c0.7,0,1.2-0.6,1.2-1.2v-5.3
		C44.3,15.3,43.8,14.7,43.1,14.7z M36.2,19.9c-0.8,0-1.4-0.6-1.4-1.3c0-0.7,0.6-1.3,1.4-1.3c0.7,0,1.3,0.6,1.3,1.3
		C37.6,19.3,37,19.9,36.2,19.9z M40.3,19.9c-0.7,0-1.3-0.6-1.3-1.3c0-0.7,0.6-1.3,1.3-1.3c0.8,0,1.3,0.6,1.3,1.3
		C41.6,19.3,41,19.9,40.3,19.9z"/>
	<path class="st0" d="M43.1,23.6H16.9c-0.7,0-1.2,0.5-1.2,1.2v5.3c0,0.7,0.5,1.2,1.2,1.2h26.2c0.7,0,1.2-0.5,1.2-1.2v-5.3
		C44.3,24.2,43.8,23.6,43.1,23.6z M36.2,28.9c-0.8,0-1.4-0.6-1.4-1.4c0-0.7,0.6-1.3,1.4-1.3c0.7,0,1.3,0.6,1.3,1.3
		C37.6,28.2,37,28.9,36.2,28.9z M40.3,28.9c-0.7,0-1.3-0.6-1.3-1.4c0-0.7,0.6-1.3,1.3-1.3c0.8,0,1.3,0.6,1.3,1.3
		C41.6,28.2,41,28.9,40.3,28.9z"/>
	<path class="st0" d="M43.1,32.5H16.9c-0.7,0-1.2,0.6-1.2,1.2v5.3c0,0.7,0.5,1.2,1.2,1.2h26.2c0.7,0,1.2-0.6,1.2-1.2v-5.3
		C44.3,33.1,43.8,32.5,43.1,32.5z M36.2,37.7c-0.8,0-1.4-0.6-1.4-1.3c0-0.8,0.6-1.4,1.4-1.4c0.7,0,1.3,0.6,1.3,1.4
		C37.6,37.1,37,37.7,36.2,37.7z M40.3,37.7c-0.7,0-1.3-0.6-1.3-1.3c0-0.8,0.6-1.4,1.3-1.4c0.8,0,1.3,0.6,1.3,1.4
		C41.6,37.1,41,37.7,40.3,37.7z"/>
</g>
</svg>
