<?xml version="1.0" encoding="utf-8"?>
<!-- Generator: Adobe Illustrator 24.3.0, SVG Export Plug-In . SVG Version: 6.00 Build 0)  -->
<svg version="1.1" id="Layer_1" xmlns="http://www.w3.org/2000/svg" xmlns:xlink="http://www.w3.org/1999/xlink" x="0px" y="0px"
	 viewBox="0 0 60 55" style="enable-background:new 0 0 60 55;" xml:space="preserve">
<style type="text/css">
	.st0{fill:#3B69DD;}
	.st1{fill:#FFFFFF;}
</style>
<path class="st0" d="M29.9,39.6C23,40,16.5,32.2,20.6,24.2c0.3-0.6,0.7-1.1,1.1-1.6c0.6-0.7,1.1-1.5,2.2-1.1
	c0.9,0.4,0.9,1.2,0.9,2.1c0.1,1.5-0.1,3.1,0.2,4.6c0.4,2,2.4,3.2,4.2,2.5c1.9-0.7,2.9-2.8,2-4.7c-0.3-0.6-0.7-1.1-1.1-1.6
	c-0.4-0.5-0.9-1-1.3-1.4c-3.8-3.4-2.6-7.2,0.1-10.7c0.8-1,2.2-0.8,2.4,0.4c0.4,3.2,2.7,5,4.8,7c2.1,2,3.8,4.3,4.4,7.3
	C41.7,33.2,36.8,40,29.9,39.6z"/>
</svg>
