<?xml version="1.0" encoding="utf-8"?>
<!-- Generator: Adobe Illustrator 24.3.0, SVG Export Plug-In . SVG Version: 6.00 Build 0)  -->
<svg version="1.1" id="Layer_1" xmlns="http://www.w3.org/2000/svg" xmlns:xlink="http://www.w3.org/1999/xlink" x="0px" y="0px"
	 viewBox="0 0 60 55" style="enable-background:new 0 0 60 55;" xml:space="preserve">
<style type="text/css">
	.st0{fill:#3B69DD;}
	.st1{fill:#FFFFFF;}
</style>
<g>
	<path class="st0" d="M14.5,26.5c0-0.1,0-0.3,0-0.4c0.1-0.8,0.2-1.6,0.4-2.4c0.3-1.1,0.7-2.2,1.2-3.3c0,0,0-0.1,0.1-0.1
		c1.7,0,3.4,0,5.1,0c0,0,0,0,0.1,0c-0.8,2-1.3,4.1-1.4,6.3c0,0-0.1,0-0.1,0c-1.8,0-3.6,0-5.5,0c0,0,0,0-0.1,0
		C14.5,26.6,14.5,26.5,14.5,26.5z"/>
	<path class="st0" d="M14.5,28.3C14.6,28.3,14.6,28.3,14.5,28.3c1.9,0,3.7,0,5.5,0c0,0,0.1,0,0.1,0c0.1,2.1,0.5,4.2,1.2,6.1
		c0,0,0,0-0.1,0c-1.7,0-3.4,0-5.1,0c0,0-0.1,0-0.1-0.1c-0.6-1.2-1-2.5-1.3-3.8c-0.1-0.7-0.2-1.4-0.3-2.1c0,0,0,0,0-0.1
		C14.5,28.3,14.5,28.3,14.5,28.3z"/>
	<path class="st0" d="M31.8,43c0,0-0.1,0-0.1-0.1c0.1-0.1,0.2-0.2,0.3-0.2c1-0.7,1.9-1.5,2.7-2.4c1.1-1.2,2.1-2.6,2.8-4.1
		c0-0.1,0.1-0.1,0.1-0.1c1.7,0,3.4,0,5.1,0c0,0,0.1,0,0.1,0c0,0.1-0.1,0.1-0.1,0.2c-0.5,0.7-1,1.4-1.6,2c-1.1,1.2-2.4,2.2-3.9,3
		c-1.1,0.6-2.2,1-3.4,1.3c-0.6,0.2-1.3,0.3-2,0.4c0,0,0,0,0,0C31.9,43,31.9,43,31.8,43z"/>
	<path class="st0" d="M37.8,26.6c-2.4,0-4.8,0-7.2,0c0-2.1,0-4.2,0-6.3c0,0,0.1,0,0.1,0c1.8,0,3.7,0,5.5,0c0.1,0,0.1,0,0.1,0.1
		c0.4,0.9,0.7,1.9,1,2.8c0.2,0.7,0.3,1.4,0.4,2.2C37.7,25.8,37.8,26.2,37.8,26.6z"/>
	<path class="st0" d="M37.8,28.3c0,0.2,0,0.4,0,0.6c-0.1,0.8-0.2,1.7-0.4,2.5c-0.2,1-0.5,2-0.9,2.9c0,0,0,0.1-0.1,0.1
		c-0.2,0-0.4,0-0.6,0c-1.7,0-3.4,0-5.1,0c0,0-0.1,0-0.1,0c0-2,0-4.1,0-6.1C32.9,28.3,35.3,28.3,37.8,28.3z"/>
	<path class="st0" d="M29,20.4c0,2.1,0,4.2,0,6.3c-2.3,0-4.7,0-7,0c0-0.2,0-0.4,0-0.6c0.1-1,0.3-2,0.5-3c0.2-0.9,0.5-1.8,0.9-2.6
		c0,0,0-0.1,0.1-0.1C25.3,20.4,27.1,20.4,29,20.4C28.9,20.4,28.9,20.4,29,20.4z"/>
	<path class="st0" d="M29,34.4c0,0-0.1,0-0.1,0c-1.8,0-3.7,0-5.5,0c-0.1,0-0.1,0-0.1-0.1c-0.5-1.2-0.8-2.4-1-3.6
		c-0.1-0.8-0.2-1.6-0.3-2.4c0,0,0,0,0,0c2.3,0,4.7,0,7,0C29,30.3,29,32.4,29,34.4z"/>
	<path class="st0" d="M39.5,26.7c-0.1-2.2-0.6-4.3-1.4-6.4c0,0,0.1,0,0.1,0c1.8,0,3.6,0,5.4,0c0.1,0,0.1,0,0.1,0.1
		c0.5,1,0.9,2,1.1,3c0.2,0.8,0.3,1.5,0.4,2.3c0,0.3,0.1,0.6,0.1,1C43.5,26.7,41.5,26.7,39.5,26.7z"/>
	<path class="st0" d="M38.3,34.4c0.7-2,1.1-4,1.2-6.1c2,0,3.9,0,5.9,0c0,0.1,0,0.3,0,0.4c-0.1,0.8-0.2,1.6-0.3,2.4
		c-0.2,1-0.6,2-1,2.9c-0.1,0.1-0.1,0.3-0.2,0.4c0,0,0,0.1-0.1,0.1c-0.3,0-0.5,0-0.8,0c-1.5,0-3.1,0-4.6,0
		C38.4,34.4,38.4,34.4,38.3,34.4z"/>
	<path class="st0" d="M42.8,18.7c-0.1,0-0.1,0-0.1,0c-1.7,0-3.4,0-5.2,0c-0.1,0-0.1,0-0.1-0.1c-0.6-1.2-1.3-2.3-2.2-3.4
		c-0.5-0.6-1.1-1.2-1.8-1.8c-0.5-0.5-1.1-0.9-1.7-1.3c0,0,0,0,0,0c0,0,0,0,0.1-0.1c0,0,0-0.1,0-0.1c2.2,0.3,4.3,1,6.2,2.1
		C39.9,15.3,41.5,16.8,42.8,18.7z"/>
	<path class="st0" d="M27.9,42.9c-0.1,0-0.1,0-0.2,0c-0.6-0.1-1.1-0.2-1.6-0.3c-1.5-0.4-2.9-1-4.3-1.8c-1.1-0.7-2.2-1.5-3.1-2.5
		c-0.6-0.7-1.2-1.4-1.7-2.2c0,0,0,0,0,0c0,0,0,0,0.1,0c1.6,0,3.2,0,4.8,0c0.1,0,0.1,0,0.1,0.1c0.4,0.7,0.7,1.4,1.2,2.1
		c0.6,0.9,1.2,1.7,1.9,2.4c0.7,0.8,1.5,1.5,2.4,2.1C27.7,42.7,27.8,42.8,27.9,42.9C27.9,42.9,27.9,42.9,27.9,42.9z"/>
	<path class="st0" d="M27.8,12.1C27.9,12.1,27.9,12.1,27.8,12.1c0,0.1,0,0.2-0.1,0.2c-0.9,0.6-1.8,1.4-2.6,2.2
		c-0.8,0.8-1.5,1.7-2.1,2.6c-0.3,0.5-0.6,1-0.9,1.5c0,0,0,0.1-0.1,0.1c-1.6,0-3.3,0-4.9,0c0,0,0,0-0.1,0c1.3-1.8,2.8-3.3,4.6-4.4
		C23.7,13.1,25.7,12.4,27.8,12.1z"/>
	<path class="st0" d="M30.5,36c1.7,0,3.4,0,5.1,0c-1.3,2.2-3,4.1-5.1,5.5C30.5,39.7,30.5,37.9,30.5,36z"/>
	<path class="st0" d="M29,36c0,1.8,0,3.6,0,5.4c-2.1-1.4-3.7-3.2-4.9-5.4C25.7,36,27.3,36,29,36z"/>
	<path class="st0" d="M35.5,18.7c-1.6,0-3.3,0-4.9,0c0-1.7,0-3.4,0-5.2C32.6,14.8,34.2,16.6,35.5,18.7z"/>
	<path class="st0" d="M29,13.7c0,1.7,0,3.4,0,5c-1.6,0-3.1,0-4.7,0C25.4,16.7,27,15,29,13.7z"/>
</g>
</svg>
