<?xml version="1.0" encoding="utf-8"?>
<!-- Generator: Adobe Illustrator 24.3.0, SVG Export Plug-In . SVG Version: 6.00 Build 0)  -->
<svg version="1.1" id="Layer_1" xmlns="http://www.w3.org/2000/svg" xmlns:xlink="http://www.w3.org/1999/xlink" x="0px" y="0px"
	 viewBox="0 0 60 55" style="enable-background:new 0 0 60 55;" xml:space="preserve">
<style type="text/css">
	.st0{fill:#3B69DD;}
	.st1{fill:#FFFFFF;}
</style>
<g>
	<g>
		<path class="st0" d="M36.2,42.4c-1.6,0-3.1-0.4-4.6-1.1C25.2,38.6,20.4,34,17.1,28c-0.9-1.6-1.5-3.2-1.9-5
			c-0.2-1.1-0.3-2.1,0.1-3.2c0.2-0.5,0.4-0.9,0.8-1.3c0.8-0.9,1.6-1.7,2.5-2.5c0.5-0.5,1.2-0.8,1.9-0.6c0.5,0.1,0.9,0.3,1.2,0.6
			c1.2,1.2,2.5,2.4,3.7,3.7c1,1,1,2.2,0,3.2c-0.7,0.7-1.4,1.4-2.1,2.1c-0.2,0.2-0.3,0.4-0.1,0.7c0.7,1.5,1.6,2.7,2.7,3.9
			c1.3,1.5,2.8,2.8,4.4,3.9c0.5,0.3,1.1,0.6,1.7,0.9c0.2,0.1,0.3,0,0.5-0.1c0.7-0.7,1.4-1.5,2.2-2.2c0.4-0.4,0.9-0.7,1.5-0.7
			c0.7,0,1.2,0.2,1.7,0.7c1.2,1.2,2.5,2.4,3.7,3.7c1,1,1,2.2,0,3.2c-0.8,0.8-1.6,1.6-2.4,2.4C38.3,42.1,37.3,42.4,36.2,42.4z"/>
		<path class="st0" d="M30,14.1c0-0.9,0.8-1.6,1.7-1.5c1.1,0.1,2.2,0.3,3.2,0.7c3.2,1.1,5.7,3.1,7.6,5.9c1.3,1.9,2.1,4,2.4,6.3
			c0.1,0.7,0,1.3-0.6,1.7c-0.5,0.4-1,0.4-1.5,0.2c-0.5-0.2-0.8-0.6-0.9-1.2c-0.6-4.7-3.1-7.9-7.5-9.8c-1-0.4-2-0.6-3-0.7
			C30.6,15.5,30,14.9,30,14.1z"/>
		<path class="st0" d="M31.7,17.9c0.7,0.1,1.5,0.3,2.3,0.7c2.7,1.2,4.5,3.2,5.4,6.1c0.1,0.4,0.2,0.7,0.3,1.1
			c0.1,0.8-0.4,1.6-1.2,1.7c-0.8,0.2-1.6-0.3-1.8-1.1c-0.2-1-0.6-2-1.2-2.8c-1-1.4-2.3-2.3-4-2.6c-0.9-0.2-1.5-0.7-1.4-1.5
			C30,18.6,30.7,17.9,31.7,17.9z"/>
	</g>
</g>
</svg>
