<?xml version="1.0" encoding="utf-8"?>
<!-- Generator: Adobe Illustrator 24.3.0, SVG Export Plug-In . SVG Version: 6.00 Build 0)  -->
<svg version="1.1" id="Layer_1" xmlns="http://www.w3.org/2000/svg" xmlns:xlink="http://www.w3.org/1999/xlink" x="0px" y="0px"
	 viewBox="0 0 60 55" style="enable-background:new 0 0 60 55;" xml:space="preserve">
<style type="text/css">
	.st0{fill:#3B69DD;}
	.st1{fill:#FFFFFF;}
</style>
<path class="st0" d="M28.2,35c-0.6,0.2-0.9,0.3-1.2,0.4c-0.9,0.4-1.6,0.2-2.2-0.5c-0.8-0.8-1.6-1.6-2.4-2.4
	c-0.2-0.2-0.3-0.5-0.5-0.8c0.2-0.7,0.4-1.4,0.6-2.1c-1.8-0.9-4.1,0.6-5.9-1.2c0.7-2.3,1.8-4.3,3-6.3c0.5-0.9,1.5-1,2.4-1
	c1.6,0,3.2,0,4.8,0c3.8-5.9,9.1-7.9,15.7-6.2c2.4,5.3,0.5,10.5-5.7,15.9c0,1.2,0,2.6,0,4.1c0.1,1.8-0.6,3-2.3,3.8
	c-1.2,0.5-2.3,1.2-3.4,1.7c-2,0.9-2.8,0.4-2.9-1.8C28.1,37.4,28.2,36.3,28.2,35z M37.4,18c-1.3,0-2.3,1-2.3,2.2c0,1.3,1,2.3,2.2,2.3
	c1.3,0,2.2-0.9,2.2-2.2C39.6,18.9,38.7,18,37.4,18z"/>
</svg>
